<svg width="27" height="33" viewBox="0 0 27 33" fill="none" xmlns="http://www.w3.org/2000/svg">
<path d="M26.8545 9.82715V28.8076C26.8545 30.1861 26.2797 31.2524 25.1289 32.0059C23.9781 32.7592 22.763 32.8632 21.4844 32.3184L13.4277 28.8555L5.37109 32.3184C4.09237 32.8634 2.87742 32.7592 1.72656 32.0059C0.57568 31.2524 4.06939e-05 30.1862 0 28.8076V21.5898L6.03711 17.6201L9.55859 21.6777C10.9375 23.2664 13.3704 23.3506 14.8555 21.8613L26.8545 9.82715ZM23.0186 0C24.0734 2.07097e-05 24.9763 0.376666 25.7275 1.12988C26.4788 1.88333 26.8545 2.78962 26.8545 3.84766V4.54785L12.2979 19.1475L8.78906 15.1055C7.59955 13.735 5.58354 13.456 4.06836 14.4521L0 17.126V3.84766C0 2.78962 0.375656 1.88333 1.12695 1.12988C1.87811 0.376629 2.78119 0.000112161 3.83594 0H23.0186Z" fill="white"/>
</svg>
